<?xml version="1.0" encoding="iso-8859-1"?>
<!-- Generator: Adobe Illustrator 19.0.0, SVG Export Plug-In . SVG Version: 6.00 Build 0)  -->
<svg version="1.1" id="Layer_1" xmlns="http://www.w3.org/2000/svg" xmlns:xlink="http://www.w3.org/1999/xlink" x="0px" y="0px"
	 viewBox="0 0 512 512" style="enable-background:new 0 0 512 512;" xml:space="preserve">
<polygon style="fill:#93C7EF;" points="369.182,0 52.513,0 52.513,512 459.487,512 459.487,90.305 "/>
<polygon style="fill:#78B9EB;" points="369.182,0 256,0 256,512 459.487,512 459.487,90.305 "/>
<polygon style="fill:#C9E3F7;" points="369.182,0 369.182,90.585 459.487,90.305 "/>
<g>
	<polygon style="fill:#FFFFFF;" points="327.688,218.445 299.84,246.293 333.177,279.631 299.84,312.969 327.688,340.816 
		388.875,279.631 	"/>
	<polygon style="fill:#FFFFFF;" points="178.823,279.631 212.16,246.293 184.312,218.445 123.126,279.631 184.312,340.816 
		212.16,312.969 	"/>
	<polygon style="fill:#FFFFFF;" points="294.919,190.359 254.67,190.359 217.083,368.903 257.33,368.903 	"/>
</g>
<g>
</g>
<g>
</g>
<g>
</g>
<g>
</g>
<g>
</g>
<g>
</g>
<g>
</g>
<g>
</g>
<g>
</g>
<g>
</g>
<g>
</g>
<g>
</g>
<g>
</g>
<g>
</g>
<g>
</g>
</svg>
